# xmcd CD database file
#
# Track frame offsets:
#	151
#	17786
#	33457
#	54674
#	67657
#	84742
#	96470
#	115692
#	133247
#	144677
#	159585
#	172037
#	186738
#	201828
#	215347
#	228233
#	244311
#	257732
#	275431
#	290792
#
# Disc length: 4029 seconds
#
# Revision: 1
# Processed by: cddbd v1.4PL0 Copyright (c) Steve Scherf et al.
# Submitted via: CDex 1.40Release
#
DISCID=3a0fbb14
DTITLE=Kenny Rogers - Complete - CD 4 - Kenny The Superstar
DYEAR=1998
DGENRE=Country
TTITLE0=We've Got Tonight
TTITLE1=I Don't Need You
TTITLE2=The Hoodooin' Of Miss Fannie Deberry
TTITLE3=Ruby, Don't Take Your Love To Town
TTITLE4=Love Lifted Me
TTITLE5=I'll Take Care Of You
TTITLE6=You've Lost That Lovin Feelin'
TTITLE7=We Don't Make Love Anymore
TTITLE8=Fightin' Fire With Fire
TTITLE9=Gideon Tanner
TTITLE10=Lying Again
TTITLE11=You Needed Me
TTITLE12=Share Your Love With Me
TTITLE13=I Wish That I Could Hurt That Way Again
TTITLE14=Love Or Something Like It
TTITLE15=Beautiful Lies
TTITLE16=I'll Just Write My Music And Sing My Songs
TTITLE17=All My Life
TTITLE18=Midnight Flyer
TTITLE19=The Loving Gift
EXTD=YEAR: 1998 ID3G: 2
EXTT0=
EXTT1=
EXTT2=
EXTT3=
EXTT4=
EXTT5=
EXTT6=
EXTT7=
EXTT8=
EXTT9=
EXTT10=
EXTT11=
EXTT12=
EXTT13=
EXTT14=
EXTT15=
EXTT16=
EXTT17=
EXTT18=
EXTT19=
PLAYORDER=
